<svg id="Layer_1" data-name="Layer 1" xmlns="http://www.w3.org/2000/svg" viewBox="0 0 500 500"><defs><style>.cls-1{fill:#49fea6;}</style></defs><path class="cls-1" d="M152.54,282.8q.08,4.4-4.2,11.29c-1.28,1.92-2.37,3-3.24,3.13a3.2,3.2,0,0,1-.89-.65q-15.63-14-58.18-22.94c-1-.28-1.93-1.36-2.7-3.25a3.92,3.92,0,0,1-.24-1.1v-.44q4.72-18.73,5.17-18.76a10.85,10.85,0,0,1,1.36,2.4c1.58-1.49,3.91-2.27,7-2.32a14.54,14.54,0,0,1,3.07.17q33.75-18.17,36.79-20.21A73.57,73.57,0,0,0,151.86,218l.86-.9-3.16,20.72c-1.28,2.22-4.91,4-10.89,5.25a17.36,17.36,0,0,0-2.41.47q-4.81,1-13.29,6.61a52.53,52.53,0,0,1-10.89,5.46q26.79,11.84,33.25,16.78Q152.23,278,152.54,282.8Z"/><path class="cls-1" d="M178.3,311.15q-11.43.19-14.74-13.6a37.43,37.43,0,0,1-1-8.11q-.27-28.12,23.2-43.68,1.72-1.35,5.64-4.06,12.78-9.87,21.11-11.58a22.94,22.94,0,0,1,2.63-.26q.12-5.49.6-16.05c.08-4.1.17-7.09.29-9,.58-8.35,1.23-13.35,1.93-15a1.76,1.76,0,0,0,.21-.66l18.57-6a5,5,0,0,1,.48,2.19,36.12,36.12,0,0,1-.58,4.41,530.2,530.2,0,0,0-2.27,59.36q1.28,35.57,2,41.71a60.45,60.45,0,0,0,1.23,7.45c.31,1.46,1.81,2.83,4.47,4.1l.89.86a2.77,2.77,0,0,1-.43.67q-7.77,7.38-11.71,9c-.73.31-2.11.77-4.15,1.39-7-.76-11.09-6.31-12.15-16.7q-.28-3.72-.39-9.66-.15-9,.43-25.94-7.71,24.53-14.33,35.19A41.33,41.33,0,0,1,197,302c-.44.3-1.38.91-2.83,1.81Q183.58,311.05,178.3,311.15Zm3-29.06q.51,16.7,7.77,16.78h.21Q203.38,287.2,209.44,257q1.22-5.73,2.61-13.88a17,17,0,0,1-6.75,3q-14.48,2.44-20.78,18.37A43.8,43.8,0,0,0,181.31,282.09Z"/><path class="cls-1" d="M248.07,293q-.07-4.39,11.52-7.46a6.92,6.92,0,0,0,1.75-.47,3.66,3.66,0,0,0,1.1-.24h.65q2.21.18,2.31,6.11l.05,2.86q.19,11,12.1,14.07a27,27,0,0,0,7.71,1c8.79-.14,13.43-2.72,13.93-7.7a7.67,7.67,0,0,0,.19-1.77q-.37-8.12-7.09-16.35-3.6-4.33-16.51-14.44-9.58-7.53-13.64-13.38-4.31-7.39-4.39-12.67-.17-9.24,6.56-14.4a3.08,3.08,0,0,1,.87-.67L270,224.3q10.21-7,17.22-8a43.12,43.12,0,0,1,4.39-.28q11.87-.21,18.14,7.14a13.75,13.75,0,0,1,3.23,8.52,7.44,7.44,0,0,1-.83,2.87L301.61,238c0-.14-.15-.22-.45-.21v-.22a6.7,6.7,0,0,1-.47-1.53l-.46-1.31q-2.55-7.87-11.34-7.94-10.75.63-10.83,9,.13,7.91,12.38,16.69c3.85,2.88,5.93,4.37,6.22,4.52q12.93,9.87,17,15.73a29.22,29.22,0,0,1,5.79,16.82q.19,11.87-14.81,20.91l-4.56,2.71a44,44,0,0,0-4.35,2.5,36.72,36.72,0,0,1-4.39.52q-11.2.19-28.95-9.82c-1.92-1-3.1-1.63-3.55-1.92s-1.26-.78-2.45-1.49q-7.31-4-8.05-8.44A6.3,6.3,0,0,1,248.07,293Zm52.06,11.61,1.31-.68a12.22,12.22,0,0,1,1.08-.68A26.26,26.26,0,0,0,300.13,304.63Z"/><path class="cls-1" d="M332,228.05c-.06-3.06,1.27-6.83,4-11.27,1.43-1.93,2.59-3,3.46-3.14l.89.42q15.84,14.24,58.4,23.16c1,.28,1.85,1.36,2.48,3.26a3.54,3.54,0,0,1,.23,1.09V242c-3.15,12.51-4.87,18.75-5.17,18.76a14.26,14.26,0,0,1-1.57-2.39,9.76,9.76,0,0,1-6.78,2.32,10.89,10.89,0,0,1-3.08-.39q-33.3,17.94-38.95,21.55a79.58,79.58,0,0,0-13,11,3.17,3.17,0,0,0-1.08.68L335,273.05c1.13-2.23,4.62-3.89,10.46-5,1.16-.17,2-.33,2.62-.48q4.81-1,13.29-6.83a58.74,58.74,0,0,1,11.11-5.46q-27.9-12.27-35-18.29Q332.27,232.23,332,228.05Z"/></svg>