<svg id="Layer_1" data-name="Layer 1" xmlns="http://www.w3.org/2000/svg" viewBox="0 0 448.944 448.045">
  <path d="M997.048,505.149c1.616.017,1.923-1.3,2.489-2.2,15.691-25.255,38.952-38.957,67.755-43.6,20.8-3.35,41.439-1.643,61.688,4.275,30.141,8.808,48.676,29.229,58.334,58.463,6.907,20.906,9.329,42.572,9.477,64.4.391,57.851.234,115.705.4,173.558.011,3.516-1.138,4.52-4.562,4.506-27.927-.109-55.855-.149-83.781.033-4.258.027-4.806-1.717-4.8-5.3q.128-74.809.026-149.621c-.016-11.479-.767-22.9-3.423-34.158-5.508-23.355-18.688-34.547-42.7-35.6-16.437-.718-31.563,2.687-42.792,15.839-8.374,9.806-11.845,21.744-13.536,34.309a223.165,223.165,0,0,0-1.523,29.857c.006,46.383-.06,92.766.1,139.147.015,4.4-1.128,5.57-5.532,5.537q-41.139-.311-82.283-.023c-3.993.022-5.416-.889-5.41-5.187q.178-144.633.012-289.267c0-3.943,1.129-5.059,5.053-5.035q39.643.24,79.291,0c3.843-.021,5.218.95,5.109,4.987-.273,10.134-.119,20.28-.058,30.42C996.4,502.044,995.824,503.768,997.048,505.149Z" transform="translate(-748.249 -316.558)" fill="#fff"/>
  <path d="M848.709,614.8c0,47.881-.068,95.763.107,143.643.017,4.719-1.092,6.2-5.987,6.156-27.261-.235-54.526-.184-81.789-.034-3.9.022-5.468-.663-5.462-5.078q.194-144.64,0-289.282c-.006-4.346,1.456-5.15,5.414-5.127q41.144.236,82.288-.022c4.457-.034,5.536,1.26,5.522,5.6C848.653,518.709,848.709,566.756,848.709,614.8Z" transform="translate(-748.249 -316.558)" fill="#fff"/>
  <path d="M855.894,370.289a53.823,53.823,0,1,1-54.022-53.73A53.669,53.669,0,0,1,855.894,370.289Z" transform="translate(-748.249 -316.558)" fill="#fff"/>
</svg>
