<?xml version="1.0" encoding="utf-8"?>
<!-- Generator: Adobe Illustrator 24.1.2, SVG Export Plug-In . SVG Version: 6.00 Build 0)  -->
<svg version="1.1" id="Layer_1" xmlns="http://www.w3.org/2000/svg" xmlns:xlink="http://www.w3.org/1999/xlink" x="0px" y="0px"
	 viewBox="0 0 500 500" style="enable-background:new 0 0 500 500;" xml:space="preserve">
<style type="text/css">
	.st0{fill:#49FEA6;}
</style>
<g>
	<g>
		<path class="st0" d="M56.1,483c-10,0-20-3.8-27.7-11.5c-15.3-15.3-15.3-40.1,0-55.3L416.2,28.5c15.3-15.3,40.1-15.3,55.3,0
			c15.3,15.3,15.3,40.1,0,55.3L83.8,471.5C76.2,479.2,66.1,483,56.1,483z"/>
	</g>
	<g>
		<path class="st0" d="M443.9,483c-10,0-20-3.8-27.7-11.5L28.5,83.8c-15.3-15.3-15.3-40.1,0-55.3c15.3-15.3,40.1-15.3,55.3,0
			l387.7,387.7c15.3,15.3,15.3,40.1,0,55.3C463.9,479.2,453.9,483,443.9,483z"/>
	</g>
</g>
</svg>
