<svg id="Layer_1" data-name="Layer 1" xmlns="http://www.w3.org/2000/svg" viewBox="0 0 500 500"><defs><style>.cls-1{fill:#49fea6;}</style></defs><path class="cls-1" d="M111,292.54q.07,4-3.83,10.3c-1.17,1.75-2.15,2.71-3,2.85a2.77,2.77,0,0,1-.81-.59q-14.27-12.78-53.12-20.93c-.94-.26-1.76-1.24-2.45-3a3.57,3.57,0,0,1-.23-1v-.4c2.88-11.4,4.45-17.13,4.72-17.13a9.63,9.63,0,0,1,1.24,2.19c1.45-1.37,3.57-2.07,6.38-2.12a13.92,13.92,0,0,1,2.81.15q30.8-16.59,33.58-18.44a67.25,67.25,0,0,0,14-11.07c.13-.14.4-.41.78-.82l-2.88,18.91q-1.74,3-9.94,4.79a14.65,14.65,0,0,0-2.2.43q-4.4.88-12.13,6a48.89,48.89,0,0,1-9.94,5Q98.52,278.53,104.42,283,110.72,288.13,111,292.54Z"/><path class="cls-1" d="M205.1,201.25Q188.74,229,154.74,293.18q-12.26,21.09-14.42,24.12a8.09,8.09,0,0,1-1.18,1.63q-3.34,4.47-14,14.88c-.4.41-.72.75-1,1l-.6.2,0-2.81a2,2,0,0,0-.42-1,6.18,6.18,0,0,1-.43-1.8q.15-2.4,3-9.07,4.24-8.89,9.7-19Q167.33,244,185,209.82q5.63-10.94,8.78-14.4l18.31-8.33v.19Q211.92,189.29,205.1,201.25Z"/><path class="cls-1" d="M234.38,316.68q-10.44.18-13.46-12.41a34.23,34.23,0,0,1-.94-7.4q-.24-25.68,21.18-39.89c1.06-.81,2.78-2.05,5.15-3.69q11.69-9,19.28-10.57a18.29,18.29,0,0,1,2.4-.24q.11-5,.54-14.65c.07-3.74.16-6.49.26-8.23.53-7.63,1.13-12.18,1.77-13.67a1.56,1.56,0,0,0,.19-.6l17-5.51a4.58,4.58,0,0,1,.43,2,29.74,29.74,0,0,1-.53,4,484,484,0,0,0-2.07,54.2q1.17,32.48,1.86,38.08a54.92,54.92,0,0,0,1.13,6.79c.29,1.34,1.65,2.58,4.07,3.74.41.4.68.67.82.79a2.3,2.3,0,0,1-.39.61q-7.11,6.75-10.69,8.21c-.67.28-1.93.7-3.78,1.27q-9.65-1-11.1-15.25c-.18-2.27-.29-5.22-.36-8.82q-.14-8.24.39-23.68-7,22.39-13.08,32.12a36.17,36.17,0,0,1-2.92,4.46c-.4.28-1.26.83-2.59,1.66Q239.18,316.59,234.38,316.68Zm2.75-26.53q.45,15.24,7.08,15.32h.21q12.86-10.65,18.38-38.23,1.11-5.24,2.39-12.68a15.61,15.61,0,0,1-6.17,2.72q-13.2,2.22-19,16.78A40.15,40.15,0,0,0,237.13,290.15Z"/><path class="cls-1" d="M298.07,300.13c-.05-2.67,3.46-4.95,10.52-6.81a7,7,0,0,0,1.59-.42,3.65,3.65,0,0,0,1-.23h.6c1.34.1,2,2,2.1,5.58l0,2.6q.18,10,11.06,12.85a24.86,24.86,0,0,0,7,.88q12-.21,12.72-7a7.34,7.34,0,0,0,.17-1.61c-.22-4.94-2.37-9.93-6.48-14.93q-3.27-4-15.08-13.18-8.73-6.85-12.44-12.21c-2.62-4.5-4-8.37-4-11.57q-.15-8.43,6-13.14a2.94,2.94,0,0,1,.8-.62q1.59-1,4.36-2.88c6.21-4.26,11.46-6.68,15.72-7.3,1.33-.15,2.67-.25,4-.27q10.83-.2,16.56,6.53a12.51,12.51,0,0,1,2.94,7.78,6.39,6.39,0,0,1-.76,2.62L347,249.93c0-.12-.15-.19-.41-.19v-.2a6.21,6.21,0,0,1-.43-1.4l-.42-1.19q-2.32-7.19-10.36-7.25c-6.54.38-9.85,3.12-9.88,8.2q.12,7.22,11.3,15.24,5.28,3.94,5.68,4.12,11.79,9,15.49,14.37A26.7,26.7,0,0,1,363.21,297q.18,10.83-13.51,19.09l-4.17,2.48a42.19,42.19,0,0,0-4,2.27,34,34,0,0,1-4,.48q-10.23.17-26.44-9c-1.74-.91-2.81-1.49-3.22-1.75s-1.16-.72-2.24-1.37c-4.45-2.46-6.91-5-7.35-7.7A6.16,6.16,0,0,1,298.07,300.13Zm47.52,10.6c.27-.13.67-.34,1.19-.62s.73-.48,1-.62A24.74,24.74,0,0,0,345.59,310.73Z"/><path class="cls-1" d="M374.68,240.82q-.07-4.2,3.62-10.29c1.31-1.75,2.36-2.71,3.17-2.86l.8.39q14.46,13,53.33,21.14c.93.25,1.69,1.24,2.25,3a3.14,3.14,0,0,1,.22,1v.4q-4.33,17.13-4.72,17.13a12.21,12.21,0,0,1-1.44-2.17,8.86,8.86,0,0,1-6.19,2.11,10.07,10.07,0,0,1-2.81-.35Q392.52,286.65,387.36,290a71.58,71.58,0,0,0-11.86,10,2.68,2.68,0,0,0-1,.61l2.88-18.7q1.56-3,9.55-4.58a22.08,22.08,0,0,0,2.4-.44q4.4-.88,12.13-6.23a53.36,53.36,0,0,1,10.13-5q-25.46-11.19-32-16.7Q374.94,244.64,374.68,240.82Z"/></svg>