<svg id="Layer_1" data-name="Layer 1" xmlns="http://www.w3.org/2000/svg" viewBox="0 0 500 500"><defs><style>.cls-1{fill:#fff;}</style></defs><path class="cls-1" d="M440.9,259.92c-.11,1.88-.24,3.77-.34,5.65A189.91,189.91,0,0,1,412.41,355a190.66,190.66,0,0,1-63.63,63.14,184.46,184.46,0,0,1-37.29,17.39,12.15,12.15,0,0,1-7.7,0c-3.69-1.18-6-4.51-6-8.72s0-8.14.05-12.21c0-14.45.21-28.9.07-43.35a49.42,49.42,0,0,0-6.11-24.12,31,31,0,0,0-6-7.67,2.88,2.88,0,0,0-.57-.32l.16-.27c1.37-.18,2.74-.34,4.11-.53,12.5-1.67,24.75-4.33,36.37-9.42,21.34-9.36,35.06-25.37,41.62-47.64a104.18,104.18,0,0,0,4.1-22.68c.37-5.6.67-11.23.53-16.84a72.35,72.35,0,0,0-18.52-47.38,2.08,2.08,0,0,1-.46-2.43,61.87,61.87,0,0,0,3.23-24.85,78.92,78.92,0,0,0-5.26-23.53,1.47,1.47,0,0,0-1.3-1.09,31.09,31.09,0,0,0-10.92.56,83.93,83.93,0,0,0-24.15,9.25c-5.29,2.92-10.39,6.2-15.55,9.37a2.33,2.33,0,0,1-2.06.31A170.41,170.41,0,0,0,270.22,157a180.42,180.42,0,0,0-29-.84,173.48,173.48,0,0,0-37.53,6,1.89,1.89,0,0,1-1.72-.3,151,151,0,0,0-26.16-14.34,62.42,62.42,0,0,0-17.8-4.87,53.54,53.54,0,0,0-7,.07,1.26,1.26,0,0,0-.89.72,74.45,74.45,0,0,0-5.34,33.73,56.29,56.29,0,0,0,3.2,15.07,1.8,1.8,0,0,1-.38,2.13,72.91,72.91,0,0,0-15.8,28.61,82.63,82.63,0,0,0-2.94,24.59c.25,12.67,1.73,25.14,5.8,37.21,4,11.92,10.33,22.39,19.69,30.93A78.85,78.85,0,0,0,179.85,331a129.78,129.78,0,0,0,26.47,6.72c3,.47,6,.87,9.05,1.3a.65.65,0,0,1-.09.26c-5.74,5.28-8.89,12-10.73,19.43-.42,1.69-.64,3.42-1,5.11a1.39,1.39,0,0,1-.63.9c-7.9,3.48-16.14,5.36-24.81,4.61a35.43,35.43,0,0,1-24.48-12.71,66,66,0,0,1-5.39-7.35c-4.17-6.45-9.11-12.11-15.75-16.11a25.81,25.81,0,0,0-18.87-3.48,9.15,9.15,0,0,0-2.27.8,2.58,2.58,0,0,0-1.26,3.69,11.51,11.51,0,0,0,3.58,4.22,30.3,30.3,0,0,0,4.2,2.92,29.4,29.4,0,0,1,8.83,8A88.64,88.64,0,0,1,139,370.4c4,10,11.43,16.34,21.45,19.84,7.52,2.63,15.32,3.3,23.22,3.08a119.21,119.21,0,0,0,17.77-1.92c.33-.06.66-.08,1.09-.13v1c.08,11.31.19,22.62.21,33.93a12.67,12.67,0,0,1-.77,4.45c-1.47,3.73-4.56,5.19-8.37,5.47-2.68.19-5.14-.67-7.6-1.55a190.23,190.23,0,0,1-75.67-49.8A188.3,188.3,0,0,1,67,309.05a180,180,0,0,1-6.74-34c-.45-4.6-.65-9.23-1-13.84,0-.37-.09-.73-.14-1.1v-11c0-.39.13-.78.15-1.18a183.78,183.78,0,0,1,4.2-33.87A190.62,190.62,0,0,1,238.94,64.14c1.82-.1,3.64-.23,5.47-.35h11.18a10.37,10.37,0,0,0,1.1.15c3.9.26,7.81.44,11.71.78a173.34,173.34,0,0,1,30.93,5.53q62.06,17,101.67,67.69a189.35,189.35,0,0,1,39.56,105.79c.09,1.85.23,3.71.34,5.56Z"/></svg>