<svg id="Layer_1" data-name="Layer 1" xmlns="http://www.w3.org/2000/svg" viewBox="0 0 500 500"><defs><style>.cls-1{fill:#fff;}</style></defs><path class="cls-1" d="M249.47,113q90.84,0,181.67,0c25.52,0,32.42,6.86,32.44,31.84q0,115.53,0,231.08c0,24.36-6.73,31.18-31.29,31.19q-182.48.1-364.94,0c-25.22,0-31.66-6.75-31.66-32.46q0-114.74,0-229.48c0-25.24,6.86-32.12,32.09-32.15Q158.63,112.9,249.47,113Zm.18,207.48,165.5-181H84Zm-72.9-42.13-92,100.54H414.6L322.47,278.32,272.42,333c-18.68,20.4-26.7,20.49-45,.52C210.93,315.53,194.46,297.6,176.75,278.31ZM61.44,366.85l98.23-107.39L61.44,152.36Zm376.08-214.3-97.85,107,97.85,106.84Z"/></svg>